<svg width="26" height="26" fill="none" xmlns="http://www.w3.org/2000/svg"><path d="M12.083 2v2.74h1.834V2h-1.834zM5.871 4.564L4.575 5.855l1.944 1.937 1.296-1.291-1.944-1.937zm14.258 0l-1.944 1.937 1.296 1.291 1.944-1.937-1.296-1.29zM13 6.565c-3.533 0-6.417 2.872-6.417 6.391 0 2.528 1.518 4.66 3.667 5.693v2.525c0 .998.831 1.826 1.833 1.826h1.834a1.843 1.843 0 001.833-1.826v-2.525c2.149-1.034 3.667-3.165 3.667-5.693 0-3.519-2.884-6.39-6.417-6.39zm0 1.826a4.56 4.56 0 011.527 8.865l-.61.214v3.704h-1.834V17.47l-.61-.214A4.56 4.56 0 0113 8.391zM2 12.043v1.827h2.75v-1.826H2zm19.25 0v1.827H24v-1.826h-2.75zM6.519 18.122l-1.944 1.937 1.296 1.29 1.944-1.936-1.296-1.291zm12.962 0l-1.296 1.291 1.944 1.937 1.296-1.291-1.944-1.937z" fill="#E75442"/></svg>