<svg width="43" height="43" fill="none" xmlns="http://www.w3.org/2000/svg"><rect opacity=".5" x=".949" y=".584" width="42" height="42" rx="7.241" fill="#DBDBDC"/><path d="M14.627 14.422h2.575m3.862 9.012h2.575m-2.575-2.574h2.575m2.576-1.288h5.15m-16.738-2.574h2.575m-2.575 2.574h2.575" stroke="#19293E" stroke-width="1.448" stroke-linecap="round"/><rect x="35.789" y="28.021" width="3.701" height="26.874" rx=".724" transform="rotate(90 35.79 28.021)" stroke="#19293E" stroke-width="1.448"/><rect x="12.779" y="9.998" width="6.276" height="17.862" rx=".724" stroke="#19293E" stroke-width="1.448"/><rect x="19.216" y="15.146" width="6.276" height="12.713" rx=".724" stroke="#19293E" stroke-width="1.448"/><rect x="25.652" y="12.572" width="6.276" height="15.287" rx=".724" stroke="#19293E" stroke-width="1.448"/><circle cx="15.914" cy="23.434" r="1.287" fill="#C4C4C4"/><circle cx="15.914" cy="23.434" r="1.287" fill="#19293E"/><circle cx="28.789" cy="15.709" r="1.287" fill="#C4C4C4"/><circle cx="28.789" cy="15.709" r="1.287" fill="#19293E"/></svg>