<svg width="43" height="43" fill="none" xmlns="http://www.w3.org/2000/svg"><rect opacity=".5" x=".949" y=".584" width="42" height="42" rx="7.241" fill="#DBDBDC"/><path d="M36.547 22.686h-4.75a.724.724 0 01-.725-.724v-2.81c0-.4.325-.724.724-.724h1.101" stroke="#19293E" stroke-width="1.448"/><rect x="11.115" y="14.283" width="15.583" height="14.367" rx=".724" stroke="#19293E" stroke-width="1.448"/><path d="M33.55 19.488l.004.006.004.005 2.706 3.247c.108.13.168.294.168.463v4.719c0 .4-.324.724-.724.724H26.93v-11.21c0-.4.324-.724.724-.724h3.33c.22 0 .428.1.566.272l1.998 2.498z" stroke="#19293E" stroke-width="1.448"/><circle cx="12.825" cy="15.993" r="5.359" fill="#E9EAEA" stroke="#19293E" stroke-width="1.448"/><path fill-rule="evenodd" clip-rule="evenodd" d="M14.484 14.193l-1.845 2.45-1.633-1.23-.615.816 2.449 1.845 2.46-3.265-.816-.616z" fill="#19293E"/><circle cx="18.299" cy="28.766" r="2.317" fill="#E9EAEA" stroke="#19293E" stroke-width="1.448"/><circle cx="31.682" cy="28.766" r="2.317" fill="#E9EAEA" stroke="#19293E" stroke-width="1.448"/></svg>