<svg width="40" height="46" fill="none" xmlns="http://www.w3.org/2000/svg"><path d="M39.69 13.282l-8.77-8.718a.984.984 0 00-.671-.256H23.23a.922.922 0 100 1.846h6.089v7.743c0 .513.413.923.929.923h7.791v26.307c0 .923-.258 1.59-.773 2.103-1.084 1.026-2.942.923-2.993.923H6.82V24.717a.922.922 0 00-.93-.923.922.922 0 00-.928.923v20.359c0 .513.413.923.929.923h28.587c.67 0 2.735-.102 4.128-1.436.929-.872 1.393-2.051 1.393-3.487V13.897a.8.8 0 00-.31-.615zm-8.462-.308V7.487l5.521 5.487h-5.52z" fill="#19293E"/><path d="M34.386 27.584h-14.04c-.419 0-.754.36-.754.811 0 .45.335.811.754.811h13.998c.42 0 .754-.36.754-.81a.724.724 0 00-.712-.812z" fill="#19293E"/><path d="M14.663 26.668c-.412-.308-1.032-.257-1.341.153l-1.806 2.257-.361-.36c-.362-.358-.98-.307-1.342.052-.361.359-.31.974.051 1.333L11 31.13a.955.955 0 00.619.256h.052c.258 0 .516-.154.67-.359l2.477-3.076c.362-.36.258-.975-.155-1.282z" fill="#E74C3C"/><path d="M35.102 37.317c0-.45-.334-.811-.753-.811H20.344c-.418 0-.752.36-.752.811 0 .45.334.811.752.811h13.964c.46 0 .794-.36.794-.81z" fill="#19293E"/><path d="M13.373 35.026l-1.806 2.256-.362-.359c-.36-.359-.98-.307-1.341.052-.362.359-.31.974.051 1.333l1.136 1.026a.955.955 0 00.619.256h.051c.258 0 .516-.154.671-.359l2.477-3.077c.31-.41.258-.974-.155-1.333-.464-.257-1.032-.205-1.341.205zM12.651 24c5.934 0 10.785-4.82 10.785-10.718 0-5.59-4.335-10.205-9.804-10.667v-.769h1.393a.922.922 0 100-1.846h-4.85a.922.922 0 100 1.846h1.496v.82c-3.458.308-6.605 2.257-8.36 5.231a.928.928 0 00.361 1.282.94.94 0 001.29-.359c1.6-2.718 4.541-4.359 7.689-4.359 4.902 0 8.875 3.95 8.875 8.82 0 4.873-3.973 8.821-8.875 8.821-4.18 0-7.637-2.872-8.617-6.718l.67.667a.97.97 0 001.342 0 .956.956 0 000-1.333l-2.58-2.462A.855.855 0 002.692 12a1.148 1.148 0 00-.67.41l-1.86 2.77c-.31.41-.154 1.025.258 1.281a1 1 0 00.516.154c.31 0 .62-.154.774-.41l.413-.564A10.783 10.783 0 0012.651 24z" fill="#E74C3C"/><path d="M11.929 6.41a.922.922 0 00-.929.923V14c0 .513.413.923.929.923h4.438a.922.922 0 100-1.846h-3.458V7.333c-.051-.513-.464-.923-.98-.923z" fill="#19293E"/></svg>