<svg width="44" height="46" fill="none" xmlns="http://www.w3.org/2000/svg"><rect x="1.368" y=".367" width="24.436" height="35.931" rx="2" transform="rotate(-29.908 26.045 6.96) skewX(.185)" fill="#fff" stroke="#19293E" stroke-width="2"/><rect x="1.226" y=".708" width="24.454" height="35.905" rx="2" transform="rotate(-14.947 35.836 -23.44) skewX(.106)" fill="#fff" stroke="#19293E" stroke-width="2"/><rect x=".913" y="1.079" width="24.46" height="35.897" rx="2" transform="rotate(4.748 -26.71 215.23) skewX(-.035)" fill="#fff" stroke="#E74C3C" stroke-width="2"/><path d="M31.919 19.906c-.418-.313-1.046-.26-1.36.156l-1.829 2.291-.366-.364c-.365-.365-.993-.313-1.358.052-.366.365-.314.99.052 1.354l1.15 1.041c.157.157.418.26.627.26h.052c.262 0 .523-.155.68-.364l2.509-3.124c.366-.365.261-.99-.157-1.302z" fill="#E74C3C"/></svg>