<svg width="43" height="49" fill="none" xmlns="http://www.w3.org/2000/svg"><mask id="a" fill="#fff"><rect y="4.35" width="43" height="10" rx="1.407"/></mask><rect y="4.35" width="43" height="10" rx="1.407" stroke="#19293E" stroke-width="4" mask="url(#a)"/><mask id="b" fill="#fff"><rect y="21.35" width="43" height="10" rx="1.407"/></mask><rect y="21.35" width="43" height="10" rx="1.407" stroke="#19293E" stroke-width="4" mask="url(#b)"/><mask id="c" fill="#fff"><rect y="38.349" width="43" height="10" rx="1.407"/></mask><rect y="38.349" width="43" height="10" rx="1.407" stroke="#19293E" stroke-width="4" mask="url(#c)"/><path d="M37.86 7.718h0l.001-.003a.523.523 0 01.775-.096c.12.1.199.254.218.415.02.16-.02.315-.12.425l-.005.006-.005.006-1.81 2.504h0l-.002.004c-.095.14-.245.23-.374.23H36.5a.524.524 0 01-.348-.162h0l-.005-.005-.827-.832c-.222-.248-.242-.665-.035-.894.219-.243.574-.26.771-.042l.264.292.117.13.102-.142 1.32-1.836zm0 16.999h0l.001-.003a.523.523 0 01.775-.096c.12.1.199.254.218.415.02.16-.02.315-.12.425l-.005.006-.005.006-1.81 2.504h0l-.002.004c-.095.14-.245.23-.374.23H36.5a.524.524 0 01-.348-.162h0l-.005-.005-.827-.832c-.222-.248-.242-.665-.035-.894.219-.243.574-.26.771-.042l.264.292.117.13.102-.142 1.32-1.836zm0 17h0l.001-.003a.523.523 0 01.775-.096c.12.1.199.254.218.415.02.16-.02.315-.12.425l-.005.006-.005.006-1.81 2.504h0l-.002.004c-.095.14-.245.23-.374.23H36.5a.524.524 0 01-.348-.162h0l-.005-.005-.827-.832c-.222-.248-.242-.665-.035-.894.219-.243.574-.26.771-.042l.264.292.117.13.102-.142 1.32-1.836z" fill="#E74C3C" stroke="#fff" stroke-width=".281"/><rect x=".448" y=".798" width="13.68" height=".897" rx=".448" stroke="#E74C3C" stroke-width=".897"/><rect x=".448" y="17.798" width="13.68" height=".897" rx=".448" stroke="#E74C3C" stroke-width=".897"/><rect x=".448" y="34.799" width="13.68" height=".897" rx=".448" stroke="#E74C3C" stroke-width=".897"/></svg>