<svg width="50" height="43" fill="none" xmlns="http://www.w3.org/2000/svg"><path d="M15.142 40.135H45a1.002 1.002 0 011 .996.995.995 0 01-1 .996H15.142a4.6 4.6 0 000-1.992zM6 41.13v.002c.002.335.038.669.11.995H5a1.002 1.002 0 01-1-.996.994.994 0 011-.996h1.11c-.072.327-.108.66-.11.995z" fill="#E74C3C" stroke="#fff" stroke-width=".5"/><path d="M10.625 42.999a1.872 1.872 0 001.875-1.87c0-1.032-.84-1.87-1.875-1.87a1.872 1.872 0 00-1.875 1.87c0 1.033.84 1.87 1.875 1.87z" fill="#19293E"/><path d="M46.25 35.272H3.75a3.505 3.505 0 01-2.475-1.023A3.483 3.483 0 01.25 31.782V3.74c0-.925.369-1.812 1.025-2.467A3.506 3.506 0 013.75.25h42.5c.928 0 1.819.368 2.475 1.022A3.484 3.484 0 0149.75 3.74v28.043c0 .926-.369 1.813-1.025 2.467a3.505 3.505 0 01-2.475 1.023zM3.75 2.242a1.502 1.502 0 00-1.5 1.497v28.043a1.495 1.495 0 001.5 1.497h42.5a1.502 1.502 0 001.5-1.497V3.74a1.494 1.494 0 00-1.5-1.496H3.75z" fill="#19293E" stroke="#fff" stroke-width=".5"/><path d="M22.5 15.208v5.107c0 .164.064.324.184.463.119.139.29.25.491.322a1.591 1.591 0 001.264-.096l4.474-2.551a.996.996 0 00.34-.307.689.689 0 00.122-.384.69.69 0 00-.122-.385 1.001 1.001 0 00-.34-.307l-4.474-2.552c-.178-.1-.39-.162-.613-.18a1.597 1.597 0 00-.651.085 1.153 1.153 0 00-.491.322.714.714 0 00-.184.463z" fill="#19293E"/></svg>