<svg width="44" height="47" fill="none" xmlns="http://www.w3.org/2000/svg"><rect x=".966" y="1.033" width="34.252" height="34.546" rx="2" transform="rotate(1.938 -268.649 235.397) skewX(.031)" fill="#fff" stroke="#19293E" stroke-width="2"/><rect x="1.089" y=".9" width="34.255" height="34.544" rx="2" transform="rotate(-5.489 89.575 5.122) skewX(-.12)" fill="#fff" stroke="#19293E" stroke-width="2"/><path d="M15.949 7.489l-.335-3.295c-.016-.156-.048-.31-.071-.466-.13-.862.145-2.276 2.148-2.482 2.003-.207 2.557 1.121 2.603 1.991.008.157.008.315.024.472l.765 7.53c.072.705-.255 2.165-2.137 2.36-1.881.194-2.495-1.17-2.567-1.875" stroke="#E74C3C" stroke-width="2" stroke-linecap="round"/></svg>