<svg width="1360" height="461" fill="none" xmlns="http://www.w3.org/2000/svg"><mask id="a" maskUnits="userSpaceOnUse" x="-30" y="0" width="1413" height="461"><path d="M1383 80.799C805.032-30.42 200.638-2.215-29.313 25.789v377.563C528.683 471.363 1144.73 465.362 1383 453.86V80.798z" fill="#C4C4C4"/></mask><g mask="url(#a)"><path opacity=".5" fill-rule="evenodd" clip-rule="evenodd" d="M896.035 15.322c159.915 17.855 326.785 44.116 491.075 81.732l-12.93 356.492c5.09-.226 10.03-.455 14.82-.686V79.798c-165.29-31.806-332.73-52.21-492.965-64.476zM-23.313 372.075v30.276c307.902 37.529 633.479 52.522 903.507 56.49-268.984-12.972-595.069-38.865-903.507-86.766z" fill="#fff"/></g></svg>