<svg width="1360" height="461" fill="none" xmlns="http://www.w3.org/2000/svg"><mask id="a" maskUnits="userSpaceOnUse" x="-30" y="0" width="1413" height="461"><path d="M1383 80.799C805.032-30.42 200.638-2.215-29.313 25.789v377.563C528.683 471.363 1144.73 465.362 1383 453.86V80.798z" fill="#C4C4C4"/></mask><g mask="url(#a)"><path opacity=".2" fill-rule="evenodd" clip-rule="evenodd" d="M1385.98 128.33l1.13-31.275C1153.68 43.606 915.029 13.084 698.518-2.975 914.911 22.759 1153.52 64.077 1385.98 128.33zM-13.16-8c-3.114.254-6.166.51-9.155.768l-6.837 188.53L-13.16-8zm-21.693 346.517L-36 370.092c230.146 36.252 470.721 60.142 690.523 75.463-219.336-25.299-459.75-60.184-689.378-107.038zM1363.62 470l17.46-206.728-7.49 206.608c-3.25.044-6.58.083-9.97.12z" fill="#fff"/></g></svg>