<svg width="1360" height="139" fill="none" xmlns="http://www.w3.org/2000/svg"><g clip-path="url(#clip0)"><path fill-rule="evenodd" clip-rule="evenodd" d="M1361 0H-1v22.304c242.704-26.472 811.692-48.789 1362 53.12V0z" fill="#fff"/><mask id="a" maskUnits="userSpaceOnUse" x="-26" y="0" width="1413" height="153"><path d="M1386.31 80.214C808.345-31.004 203.951-2.8-26 25.204v127.563h1412.31V80.214z" fill="#C4C4C4"/></mask><g mask="url(#a)"><path opacity=".5" fill-rule="evenodd" clip-rule="evenodd" d="M899.348 14.737C1059.27 32.592 1226.14 58.853 1390.42 96.47l-7.18 356.233c3.08-.142 6.11-.284 9.07-.427V79.213c-165.28-31.806-332.73-52.21-492.962-64.476zM-19.999 371.49v30.276c309.842 37.765 637.582 52.71 908.604 56.564C617.688 445.382 289.074 419.482-20 371.49z" fill="#fff"/></g><mask id="b" maskUnits="userSpaceOnUse" x="-26" y="0" width="1413" height="461"><path d="M1386.31 80.214C808.345-31.004 203.951-2.8-26 25.204v377.563c557.996 68.011 1174.04 62.01 1412.31 50.508V80.214z" fill="#C4C4C4"/></mask><g mask="url(#b)"><path opacity=".2" fill-rule="evenodd" clip-rule="evenodd" d="M1389.71 127.86l.71-31.39C1156.99 43.02 918.342 12.499 701.832-3.56c216.522 25.75 455.278 67.1 687.878 131.42zM-9.846-8.585c-3.114.254-6.166.51-9.155.768l-6.837 188.53L-9.846-8.585zM-31.54 337.932l-1.145 31.575c232.217 36.578 475.928 60.571 698.345 75.875-222.547-25.332-466.283-60.341-697.2-107.45zm1408.53 131.425l8.42-153.264-3.51 153.202c-1.62.022-3.25.043-4.91.062z" fill="#fff"/></g></g><defs><clipPath id="clip0"><path fill="#fff" d="M0 0h1360v139H0z"/></clipPath></defs></svg>