<svg width="1360" height="141" fill="none" xmlns="http://www.w3.org/2000/svg"><g clip-path="url(#clip0)"><mask id="a" maskUnits="userSpaceOnUse" x="-26" y="-317" width="1413" height="460"><path d="M1386.31-236.786C808.345-348.005 203.951-319.8-26-291.795V143h1412.31v-379.786z" fill="#C4C4C4"/></mask><g mask="url(#a)"><path opacity=".5" fill-rule="evenodd" clip-rule="evenodd" d="M899.348-302.263c159.922 17.855 326.792 44.116 491.072 81.732l-7.18 356.233c3.08-.142 6.11-.284 9.07-.427v-373.062c-165.28-31.806-332.73-52.209-492.962-64.476zM-19.999 54.49v30.276c309.842 37.765 637.582 52.71 908.604 56.564C617.688 128.382 289.074 102.482-20 54.49z" fill="#fff"/></g><mask id="b" maskUnits="userSpaceOnUse" x="-26" y="-317" width="1413" height="461"><path d="M1386.31-236.786C808.345-348.005 203.951-319.8-26-291.795V85.767c557.996 68.011 1174.04 62.01 1412.31 50.508v-373.061z" fill="#C4C4C4"/></mask><g mask="url(#b)"><path opacity=".2" fill-rule="evenodd" clip-rule="evenodd" d="M1389.71-189.14l.71-31.39c-233.43-53.449-472.078-83.971-688.588-100.03 216.522 25.749 455.278 67.101 687.878 131.42zM-9.846-325.585c-3.114.254-6.166.51-9.155.768l-6.837 188.53 15.992-189.298zM-31.54 20.932l-1.145 31.575c232.217 36.578 475.928 60.571 698.345 75.875-222.547-25.332-466.283-60.341-697.2-107.45zm1408.53 131.425l8.42-153.264-3.51 153.202c-1.62.022-3.25.043-4.91.062z" fill="#fff"/></g><path fill-rule="evenodd" clip-rule="evenodd" d="M1362-319H0v22.304c242.704-26.472 811.692-48.789 1362 53.12V-319zm0 454c-79.77 3.353-193 5.991-327.49 6H1362v-6zm-328.83 6C745.987 140.981 362.195 128.972 0 86.402V141h1033.17z" fill="#fff"/></g><defs><clipPath id="clip0"><path fill="#fff" d="M0 0h1360v141H0z"/></clipPath></defs></svg>